M48
;DRILL file {KiCad 4.0.6} date 08/15/24 14:35:33
;FORMAT={-:-/ absolute / inch / decimal}
FMAT,2
INCH,TZ
T1C0.016
T2C0.018
T3C0.024
T4C0.031
T5C0.040
%
G90
G05
M72
T1
X3.675Y-4.9
X3.6776Y-5.4323
X3.95Y-4.575
X3.95Y-5.225
X4.0224Y-5.4323
X4.1Y-4.575
X4.1Y-5.225
X4.2Y-5.46
X4.2026Y-5.63
X4.25Y-4.575
X4.25Y-5.23
X4.4Y-4.575
X4.4Y-5.225
X4.545Y-5.225
X4.55Y-4.57
X4.58Y-5.62
X4.7Y-4.575
X4.7Y-5.225
X4.745Y-5.325
X4.88Y-5.325
X4.975Y-4.905
X5.Y-5.34
X5.Y-5.6274
X5.01Y-5.245
X5.075Y-5.315
X5.17Y-5.42
X5.17Y-5.46
X5.17Y-5.5
X5.175Y-5.31
X5.21Y-5.42
X5.21Y-5.46
X5.21Y-5.5
X5.255Y-5.42
X5.255Y-5.46
X5.255Y-5.4975
X5.2976Y-5.1756
X5.4Y-5.22
X5.42Y-4.9826
X5.48Y-4.98
X5.48Y-5.12
X5.48Y-5.19
X5.51Y-5.63
X5.5208Y-5.33
X5.5225Y-5.39
X5.5225Y-5.4525
X5.5225Y-5.51
X5.57Y-5.57
X5.6225Y-4.8939
X5.65Y-5.57
X5.65Y-5.63
X5.67Y-5.33
X5.68Y-5.08
X5.72Y-4.74
X5.72Y-4.825
X5.72Y-5.27
X5.78Y-5.63
X5.79Y-4.61
X5.79Y-4.74
X5.8Y-4.96
X5.8275Y-5.39
X5.83Y-5.34
X5.8775Y-5.44
X5.89Y-5.63
X5.92Y-4.83
X5.9524Y-5.49
X5.955Y-5.595
X5.96Y-5.29
X5.97Y-4.54
X6.02Y-5.28
X6.1Y-4.83
X6.1Y-4.96
X6.1Y-5.28
X6.14Y-5.64
X6.24Y-5.28
X6.25Y-5.48
X6.265Y-4.8287
X6.265Y-4.935
X6.27Y-5.4
X6.28Y-5.55
X6.29Y-5.115
X6.3Y-5.2826
X6.315Y-5.0413
X6.34Y-5.49
X6.3424Y-4.76
X6.37Y-5.64
X6.385Y-5.3
X6.385Y-5.43
X6.405Y-5.11
X6.4776Y-5.4323
X6.515Y-5.11
X6.535Y-4.51
X6.54Y-5.2
X6.685Y-4.785
X6.685Y-4.855
X6.72Y-5.21
X6.72Y-5.32
X6.72Y-5.43
X6.74Y-4.91
X6.74Y-5.04
X6.74Y-5.15
X6.8224Y-5.4323
X6.9114Y-4.68
X6.915Y-4.905
X7.125Y-4.54
X7.3824Y-4.405
X7.45Y-4.57
T2
X3.6776Y-5.4323
X4.0224Y-5.4323
X6.4776Y-5.4323
X6.8224Y-5.4323
T3
X7.41Y-4.8
X7.41Y-4.9
X7.46Y-4.85
T4
X6.625Y-4.89
X6.625Y-4.99
T5
X7.1801Y-5.12G85X7.2399Y-5.12
G05
X7.1801Y-5.3602G85X7.2399Y-5.3602
G05
X7.41Y-5.2999G85X7.41Y-5.2401
G05
T0
M30
