G04 #@! TF.FileFunction,Legend,Top*
%FSLAX46Y46*%
G04 Gerber Fmt 4.6, Leading zero omitted, Abs format (unit mm)*
G04 Created by KiCad (PCBNEW 4.0.6) date 08/15/24 14:35:26*
%MOMM*%
%LPD*%
G01*
G04 APERTURE LIST*
%ADD10C,0.100000*%
%ADD11C,0.250000*%
%ADD12C,0.120000*%
%ADD13C,0.150000*%
G04 APERTURE END LIST*
D10*
D11*
X129752238Y-112889381D02*
X129276047Y-112889381D01*
X129401047Y-111889381D01*
X130514143Y-112889381D02*
X130579620Y-112365571D01*
X130543905Y-112270333D01*
X130454620Y-112222714D01*
X130264143Y-112222714D01*
X130162952Y-112270333D01*
X130520096Y-112841762D02*
X130418905Y-112889381D01*
X130180809Y-112889381D01*
X130091524Y-112841762D01*
X130055810Y-112746524D01*
X130067714Y-112651286D01*
X130127238Y-112556048D01*
X130228428Y-112508429D01*
X130466524Y-112508429D01*
X130567715Y-112460810D01*
X130948667Y-112841762D02*
X131037952Y-112889381D01*
X131228428Y-112889381D01*
X131329620Y-112841762D01*
X131389144Y-112746524D01*
X131395096Y-112698905D01*
X131359382Y-112603667D01*
X131270095Y-112556048D01*
X131127238Y-112556048D01*
X131037952Y-112508429D01*
X131002238Y-112413190D01*
X131008191Y-112365571D01*
X131067714Y-112270333D01*
X131168905Y-112222714D01*
X131311762Y-112222714D01*
X131401048Y-112270333D01*
X132186763Y-112841762D02*
X132085572Y-112889381D01*
X131895095Y-112889381D01*
X131805810Y-112841762D01*
X131770096Y-112746524D01*
X131817715Y-112365571D01*
X131877238Y-112270333D01*
X131978429Y-112222714D01*
X132168906Y-112222714D01*
X132258191Y-112270333D01*
X132293906Y-112365571D01*
X132282001Y-112460810D01*
X131793905Y-112556048D01*
X132657000Y-112889381D02*
X132740334Y-112222714D01*
X132716524Y-112413190D02*
X132776048Y-112317952D01*
X132829619Y-112270333D01*
X132930810Y-112222714D01*
X133026049Y-112222714D01*
X134121287Y-112222714D02*
X133996287Y-113222714D01*
X134115334Y-112270333D02*
X134216525Y-112222714D01*
X134407002Y-112222714D01*
X134496287Y-112270333D01*
X134537954Y-112317952D01*
X134573668Y-112413190D01*
X134537954Y-112698905D01*
X134478430Y-112794143D01*
X134424859Y-112841762D01*
X134323668Y-112889381D01*
X134133191Y-112889381D01*
X134043906Y-112841762D01*
X134942715Y-112889381D02*
X135067715Y-111889381D01*
X135371287Y-112889381D02*
X135436764Y-112365571D01*
X135401049Y-112270333D01*
X135311764Y-112222714D01*
X135168906Y-112222714D01*
X135067715Y-112270333D01*
X135014144Y-112317952D01*
X136276049Y-112889381D02*
X136341526Y-112365571D01*
X136305811Y-112270333D01*
X136216526Y-112222714D01*
X136026049Y-112222714D01*
X135924858Y-112270333D01*
X136282002Y-112841762D02*
X136180811Y-112889381D01*
X135942715Y-112889381D01*
X135853430Y-112841762D01*
X135817716Y-112746524D01*
X135829620Y-112651286D01*
X135889144Y-112556048D01*
X135990334Y-112508429D01*
X136228430Y-112508429D01*
X136329621Y-112460810D01*
X136710573Y-112841762D02*
X136799858Y-112889381D01*
X136990334Y-112889381D01*
X137091526Y-112841762D01*
X137151050Y-112746524D01*
X137157002Y-112698905D01*
X137121288Y-112603667D01*
X137032001Y-112556048D01*
X136889144Y-112556048D01*
X136799858Y-112508429D01*
X136764144Y-112413190D01*
X136770097Y-112365571D01*
X136829620Y-112270333D01*
X136930811Y-112222714D01*
X137073668Y-112222714D01*
X137162954Y-112270333D01*
X137948669Y-112841762D02*
X137847478Y-112889381D01*
X137657001Y-112889381D01*
X137567716Y-112841762D01*
X137532002Y-112746524D01*
X137579621Y-112365571D01*
X137639144Y-112270333D01*
X137740335Y-112222714D01*
X137930812Y-112222714D01*
X138020097Y-112270333D01*
X138055812Y-112365571D01*
X138043907Y-112460810D01*
X137555811Y-112556048D01*
X139264145Y-112222714D02*
X139180811Y-112889381D01*
X139252240Y-112317952D02*
X139305811Y-112270333D01*
X139407002Y-112222714D01*
X139549860Y-112222714D01*
X139639145Y-112270333D01*
X139674860Y-112365571D01*
X139609383Y-112889381D01*
X140228430Y-112889381D02*
X140139145Y-112841762D01*
X140097478Y-112794143D01*
X140061764Y-112698905D01*
X140097478Y-112413190D01*
X140157002Y-112317952D01*
X140210573Y-112270333D01*
X140311764Y-112222714D01*
X140454622Y-112222714D01*
X140543907Y-112270333D01*
X140585574Y-112317952D01*
X140621288Y-112413190D01*
X140585574Y-112698905D01*
X140526050Y-112794143D01*
X140472479Y-112841762D01*
X140371288Y-112889381D01*
X140228430Y-112889381D01*
X140990335Y-112889381D02*
X141073669Y-112222714D01*
X141115335Y-111889381D02*
X141061764Y-111937000D01*
X141103431Y-111984619D01*
X141157002Y-111937000D01*
X141115335Y-111889381D01*
X141103431Y-111984619D01*
X141424859Y-112841762D02*
X141514144Y-112889381D01*
X141704620Y-112889381D01*
X141805812Y-112841762D01*
X141865336Y-112746524D01*
X141871288Y-112698905D01*
X141835574Y-112603667D01*
X141746287Y-112556048D01*
X141603430Y-112556048D01*
X141514144Y-112508429D01*
X141478430Y-112413190D01*
X141484383Y-112365571D01*
X141543906Y-112270333D01*
X141645097Y-112222714D01*
X141787954Y-112222714D01*
X141877240Y-112270333D01*
X142662955Y-112841762D02*
X142561764Y-112889381D01*
X142371287Y-112889381D01*
X142282002Y-112841762D01*
X142246288Y-112746524D01*
X142293907Y-112365571D01*
X142353430Y-112270333D01*
X142454621Y-112222714D01*
X142645098Y-112222714D01*
X142734383Y-112270333D01*
X142770098Y-112365571D01*
X142758193Y-112460810D01*
X142270097Y-112556048D01*
X129704619Y-114639381D02*
X129829619Y-113639381D01*
X129710572Y-114591762D02*
X129609381Y-114639381D01*
X129418904Y-114639381D01*
X129329619Y-114591762D01*
X129287952Y-114544143D01*
X129252238Y-114448905D01*
X129287952Y-114163190D01*
X129347476Y-114067952D01*
X129401047Y-114020333D01*
X129502238Y-113972714D01*
X129692715Y-113972714D01*
X129782000Y-114020333D01*
X130567715Y-114591762D02*
X130466524Y-114639381D01*
X130276047Y-114639381D01*
X130186762Y-114591762D01*
X130151048Y-114496524D01*
X130198667Y-114115571D01*
X130258190Y-114020333D01*
X130359381Y-113972714D01*
X130549858Y-113972714D01*
X130639143Y-114020333D01*
X130674858Y-114115571D01*
X130662953Y-114210810D01*
X130174857Y-114306048D01*
X130978429Y-113972714D02*
X131359381Y-113972714D01*
X131162952Y-113639381D02*
X131055810Y-114496524D01*
X131091524Y-114591762D01*
X131180809Y-114639381D01*
X131276047Y-114639381D01*
X131996287Y-114591762D02*
X131895096Y-114639381D01*
X131704619Y-114639381D01*
X131615334Y-114591762D01*
X131579620Y-114496524D01*
X131627239Y-114115571D01*
X131686762Y-114020333D01*
X131787953Y-113972714D01*
X131978430Y-113972714D01*
X132067715Y-114020333D01*
X132103430Y-114115571D01*
X132091525Y-114210810D01*
X131603429Y-114306048D01*
X132901049Y-114591762D02*
X132799858Y-114639381D01*
X132609381Y-114639381D01*
X132520096Y-114591762D01*
X132478429Y-114544143D01*
X132442715Y-114448905D01*
X132478429Y-114163190D01*
X132537953Y-114067952D01*
X132591524Y-114020333D01*
X132692715Y-113972714D01*
X132883192Y-113972714D01*
X132972477Y-114020333D01*
X133264144Y-113972714D02*
X133645096Y-113972714D01*
X133448667Y-113639381D02*
X133341525Y-114496524D01*
X133377239Y-114591762D01*
X133466524Y-114639381D01*
X133561762Y-114639381D01*
X134037953Y-114639381D02*
X133948668Y-114591762D01*
X133907001Y-114544143D01*
X133871287Y-114448905D01*
X133907001Y-114163190D01*
X133966525Y-114067952D01*
X134020096Y-114020333D01*
X134121287Y-113972714D01*
X134264145Y-113972714D01*
X134353430Y-114020333D01*
X134395097Y-114067952D01*
X134430811Y-114163190D01*
X134395097Y-114448905D01*
X134335573Y-114544143D01*
X134282002Y-114591762D01*
X134180811Y-114639381D01*
X134037953Y-114639381D01*
X134799858Y-114639381D02*
X134883192Y-113972714D01*
X134859382Y-114163190D02*
X134918906Y-114067952D01*
X134972477Y-114020333D01*
X135073668Y-113972714D01*
X135168907Y-113972714D01*
X136121288Y-113972714D02*
X136502240Y-113972714D01*
X136180811Y-114639381D02*
X136287954Y-113782238D01*
X136347478Y-113687000D01*
X136448668Y-113639381D01*
X136543906Y-113639381D01*
X136895097Y-114639381D02*
X136805812Y-114591762D01*
X136764145Y-114544143D01*
X136728431Y-114448905D01*
X136764145Y-114163190D01*
X136823669Y-114067952D01*
X136877240Y-114020333D01*
X136978431Y-113972714D01*
X137121289Y-113972714D01*
X137210574Y-114020333D01*
X137252241Y-114067952D01*
X137287955Y-114163190D01*
X137252241Y-114448905D01*
X137192717Y-114544143D01*
X137139146Y-114591762D01*
X137037955Y-114639381D01*
X136895097Y-114639381D01*
X137657002Y-114639381D02*
X137740336Y-113972714D01*
X137716526Y-114163190D02*
X137776050Y-114067952D01*
X137829621Y-114020333D01*
X137930812Y-113972714D01*
X138026051Y-113972714D01*
X139436766Y-114115571D02*
X139103432Y-114115571D01*
X139037955Y-114639381D02*
X139162955Y-113639381D01*
X139639146Y-113639381D01*
X140293909Y-114115571D02*
X139960575Y-114115571D01*
X139895098Y-114639381D02*
X140020098Y-113639381D01*
X140496289Y-113639381D01*
X129276047Y-116389381D02*
X129401047Y-115389381D01*
X129639142Y-115389381D01*
X129776048Y-115437000D01*
X129859381Y-115532238D01*
X129895096Y-115627476D01*
X129918905Y-115817952D01*
X129901048Y-115960810D01*
X129829619Y-116151286D01*
X129770096Y-116246524D01*
X129662953Y-116341762D01*
X129514142Y-116389381D01*
X129276047Y-116389381D01*
X130662953Y-116341762D02*
X130561762Y-116389381D01*
X130371285Y-116389381D01*
X130282000Y-116341762D01*
X130246286Y-116246524D01*
X130293905Y-115865571D01*
X130353428Y-115770333D01*
X130454619Y-115722714D01*
X130645096Y-115722714D01*
X130734381Y-115770333D01*
X130770096Y-115865571D01*
X130758191Y-115960810D01*
X130270095Y-116056048D01*
X131091524Y-116341762D02*
X131180809Y-116389381D01*
X131371285Y-116389381D01*
X131472477Y-116341762D01*
X131532001Y-116246524D01*
X131537953Y-116198905D01*
X131502239Y-116103667D01*
X131412952Y-116056048D01*
X131270095Y-116056048D01*
X131180809Y-116008429D01*
X131145095Y-115913190D01*
X131151048Y-115865571D01*
X131210571Y-115770333D01*
X131311762Y-115722714D01*
X131454619Y-115722714D01*
X131543905Y-115770333D01*
X131942714Y-116389381D02*
X132026048Y-115722714D01*
X132067714Y-115389381D02*
X132014143Y-115437000D01*
X132055810Y-115484619D01*
X132109381Y-115437000D01*
X132067714Y-115389381D01*
X132055810Y-115484619D01*
X132930810Y-115722714D02*
X132829619Y-116532238D01*
X132770095Y-116627476D01*
X132716524Y-116675095D01*
X132615333Y-116722714D01*
X132472476Y-116722714D01*
X132383190Y-116675095D01*
X132853429Y-116341762D02*
X132752238Y-116389381D01*
X132561761Y-116389381D01*
X132472476Y-116341762D01*
X132430809Y-116294143D01*
X132395095Y-116198905D01*
X132430809Y-115913190D01*
X132490333Y-115817952D01*
X132543904Y-115770333D01*
X132645095Y-115722714D01*
X132835572Y-115722714D01*
X132924857Y-115770333D01*
X133407000Y-115722714D02*
X133323666Y-116389381D01*
X133395095Y-115817952D02*
X133448666Y-115770333D01*
X133549857Y-115722714D01*
X133692715Y-115722714D01*
X133782000Y-115770333D01*
X133817715Y-115865571D01*
X133752238Y-116389381D01*
X134615334Y-116341762D02*
X134514143Y-116389381D01*
X134323666Y-116389381D01*
X134234381Y-116341762D01*
X134198667Y-116246524D01*
X134246286Y-115865571D01*
X134305809Y-115770333D01*
X134407000Y-115722714D01*
X134597477Y-115722714D01*
X134686762Y-115770333D01*
X134722477Y-115865571D01*
X134710572Y-115960810D01*
X134222476Y-116056048D01*
X135514143Y-116389381D02*
X135639143Y-115389381D01*
X135520096Y-116341762D02*
X135418905Y-116389381D01*
X135228428Y-116389381D01*
X135139143Y-116341762D01*
X135097476Y-116294143D01*
X135061762Y-116198905D01*
X135097476Y-115913190D01*
X135157000Y-115817952D01*
X135210571Y-115770333D01*
X135311762Y-115722714D01*
X135502239Y-115722714D01*
X135591524Y-115770333D01*
X136752238Y-116389381D02*
X136877238Y-115389381D01*
X136829619Y-115770333D02*
X136930810Y-115722714D01*
X137121287Y-115722714D01*
X137210572Y-115770333D01*
X137252239Y-115817952D01*
X137287953Y-115913190D01*
X137252239Y-116198905D01*
X137192715Y-116294143D01*
X137139144Y-116341762D01*
X137037953Y-116389381D01*
X136847476Y-116389381D01*
X136758191Y-116341762D01*
X137645096Y-115722714D02*
X137799857Y-116389381D01*
X138121287Y-115722714D02*
X137799857Y-116389381D01*
X137674857Y-116627476D01*
X137621286Y-116675095D01*
X137520096Y-116722714D01*
X139657001Y-116389381D02*
X139180810Y-116389381D01*
X139305810Y-115389381D01*
X139990334Y-116389381D02*
X140073668Y-115722714D01*
X140115334Y-115389381D02*
X140061763Y-115437000D01*
X140103430Y-115484619D01*
X140157001Y-115437000D01*
X140115334Y-115389381D01*
X140103430Y-115484619D01*
X140549858Y-115722714D02*
X140466524Y-116389381D01*
X140537953Y-115817952D02*
X140591524Y-115770333D01*
X140692715Y-115722714D01*
X140835573Y-115722714D01*
X140924858Y-115770333D01*
X140960573Y-115865571D01*
X140895096Y-116389381D01*
X141311763Y-115722714D02*
X141692715Y-115722714D01*
X141496286Y-115389381D02*
X141389144Y-116246524D01*
X141424858Y-116341762D01*
X141514143Y-116389381D01*
X141609381Y-116389381D01*
X142371287Y-116389381D02*
X142436764Y-115865571D01*
X142401049Y-115770333D01*
X142311764Y-115722714D01*
X142121287Y-115722714D01*
X142020096Y-115770333D01*
X142377240Y-116341762D02*
X142276049Y-116389381D01*
X142037953Y-116389381D01*
X141948668Y-116341762D01*
X141912954Y-116246524D01*
X141924858Y-116151286D01*
X141984382Y-116056048D01*
X142085572Y-116008429D01*
X142323668Y-116008429D01*
X142424859Y-115960810D01*
X142990334Y-116389381D02*
X142901049Y-116341762D01*
X142859382Y-116294143D01*
X142823668Y-116198905D01*
X142859382Y-115913190D01*
X142918906Y-115817952D01*
X142972477Y-115770333D01*
X143073668Y-115722714D01*
X143216526Y-115722714D01*
X143305811Y-115770333D01*
X143347478Y-115817952D01*
X143383192Y-115913190D01*
X143347478Y-116198905D01*
X143287954Y-116294143D01*
X143234383Y-116341762D01*
X143133192Y-116389381D01*
X142990334Y-116389381D01*
X144990335Y-116389381D02*
X144514144Y-116389381D01*
X144639144Y-115389381D01*
X145323668Y-116389381D02*
X145407002Y-115722714D01*
X145448668Y-115389381D02*
X145395097Y-115437000D01*
X145436764Y-115484619D01*
X145490335Y-115437000D01*
X145448668Y-115389381D01*
X145436764Y-115484619D01*
X129859381Y-118044143D02*
X129805810Y-118091762D01*
X129657000Y-118139381D01*
X129561762Y-118139381D01*
X129424857Y-118091762D01*
X129341524Y-117996524D01*
X129305809Y-117901286D01*
X129282000Y-117710810D01*
X129299857Y-117567952D01*
X129371286Y-117377476D01*
X129430809Y-117282238D01*
X129537952Y-117187000D01*
X129686762Y-117139381D01*
X129782000Y-117139381D01*
X129918905Y-117187000D01*
X129960572Y-117234619D01*
X130418904Y-118139381D02*
X130329619Y-118091762D01*
X130287952Y-118044143D01*
X130252238Y-117948905D01*
X130287952Y-117663190D01*
X130347476Y-117567952D01*
X130401047Y-117520333D01*
X130502238Y-117472714D01*
X130645096Y-117472714D01*
X130734381Y-117520333D01*
X130776048Y-117567952D01*
X130811762Y-117663190D01*
X130776048Y-117948905D01*
X130716524Y-118044143D01*
X130662953Y-118091762D01*
X130561762Y-118139381D01*
X130418904Y-118139381D01*
X131168905Y-117472714D02*
X131323666Y-118139381D01*
X131645096Y-117472714D01*
X132329620Y-118091762D02*
X132228429Y-118139381D01*
X132037952Y-118139381D01*
X131948667Y-118091762D01*
X131912953Y-117996524D01*
X131960572Y-117615571D01*
X132020095Y-117520333D01*
X132121286Y-117472714D01*
X132311763Y-117472714D01*
X132401048Y-117520333D01*
X132436763Y-117615571D01*
X132424858Y-117710810D01*
X131936762Y-117806048D01*
X132787953Y-117472714D02*
X132942714Y-118139381D01*
X133264144Y-117472714D02*
X132942714Y-118139381D01*
X132817714Y-118377476D01*
X132764143Y-118425095D01*
X132662953Y-118472714D01*
X134799858Y-118139381D02*
X134323667Y-118139381D01*
X134448667Y-117139381D01*
X135561763Y-118139381D02*
X135627240Y-117615571D01*
X135591525Y-117520333D01*
X135502240Y-117472714D01*
X135311763Y-117472714D01*
X135210572Y-117520333D01*
X135567716Y-118091762D02*
X135466525Y-118139381D01*
X135228429Y-118139381D01*
X135139144Y-118091762D01*
X135103430Y-117996524D01*
X135115334Y-117901286D01*
X135174858Y-117806048D01*
X135276048Y-117758429D01*
X135514144Y-117758429D01*
X135615335Y-117710810D01*
X136037953Y-118139381D02*
X136162953Y-117139381D01*
X136115334Y-117520333D02*
X136216525Y-117472714D01*
X136407002Y-117472714D01*
X136496287Y-117520333D01*
X136537954Y-117567952D01*
X136573668Y-117663190D01*
X136537954Y-117948905D01*
X136478430Y-118044143D01*
X136424859Y-118091762D01*
X136323668Y-118139381D01*
X136133191Y-118139381D01*
X136043906Y-118091762D01*
X138383192Y-117663190D02*
X138341526Y-117615571D01*
X138252240Y-117567952D01*
X138157002Y-117567952D01*
X138055812Y-117615571D01*
X138002239Y-117663190D01*
X137942715Y-117758429D01*
X137930811Y-117853667D01*
X137966525Y-117948905D01*
X138008193Y-117996524D01*
X138097478Y-118044143D01*
X138192716Y-118044143D01*
X138293907Y-117996524D01*
X138347478Y-117948905D01*
X138395097Y-117567952D02*
X138347478Y-117948905D01*
X138389145Y-117996524D01*
X138436764Y-117996524D01*
X138537954Y-117948905D01*
X138597478Y-117853667D01*
X138627240Y-117615571D01*
X138549859Y-117472714D01*
X138418907Y-117377476D01*
X138234383Y-117329857D01*
X138037954Y-117377476D01*
X137883192Y-117472714D01*
X137770097Y-117615571D01*
X137698668Y-117806048D01*
X137722478Y-117996524D01*
X137799858Y-118139381D01*
X137930811Y-118234619D01*
X138115335Y-118282238D01*
X138311764Y-118234619D01*
X138466525Y-118139381D01*
X139115334Y-117139381D02*
X139014144Y-117948905D01*
X139049858Y-118044143D01*
X139091525Y-118091762D01*
X139180810Y-118139381D01*
X139371287Y-118139381D01*
X139472478Y-118091762D01*
X139526049Y-118044143D01*
X139585573Y-117948905D01*
X139686763Y-117139381D01*
X140037953Y-118139381D02*
X140162953Y-117139381D01*
X140639143Y-117139381D02*
X140537953Y-117948905D01*
X140573667Y-118044143D01*
X140615334Y-118091762D01*
X140704619Y-118139381D01*
X140895096Y-118139381D01*
X140996287Y-118091762D01*
X141049858Y-118044143D01*
X141109382Y-117948905D01*
X141210572Y-117139381D01*
X142145096Y-118044143D02*
X142091525Y-118091762D01*
X141942715Y-118139381D01*
X141847477Y-118139381D01*
X141710572Y-118091762D01*
X141627239Y-117996524D01*
X141591524Y-117901286D01*
X141567715Y-117710810D01*
X141585572Y-117567952D01*
X141657001Y-117377476D01*
X141716524Y-117282238D01*
X141823667Y-117187000D01*
X141972477Y-117139381D01*
X142067715Y-117139381D01*
X142204620Y-117187000D01*
X142246287Y-117234619D01*
D12*
X108046000Y-139030000D02*
X107346000Y-139030000D01*
X107346000Y-137830000D02*
X108046000Y-137830000D01*
X108046000Y-143602000D02*
X107346000Y-143602000D01*
X107346000Y-142402000D02*
X108046000Y-142402000D01*
X130460000Y-129575000D02*
X131160000Y-129575000D01*
X131160000Y-130775000D02*
X130460000Y-130775000D01*
X163484000Y-123540000D02*
X163484000Y-122840000D01*
X164684000Y-122840000D02*
X164684000Y-123540000D01*
X159797000Y-120304000D02*
X160497000Y-120304000D01*
X160497000Y-121504000D02*
X159797000Y-121504000D01*
X161005000Y-130394000D02*
X160305000Y-130394000D01*
X160305000Y-129194000D02*
X161005000Y-129194000D01*
X138592000Y-127858000D02*
X138592000Y-127158000D01*
X139792000Y-127158000D02*
X139792000Y-127858000D01*
X137068000Y-127858000D02*
X137068000Y-127158000D01*
X138268000Y-127158000D02*
X138268000Y-127858000D01*
X130906000Y-133950000D02*
X130206000Y-133950000D01*
X130206000Y-132750000D02*
X130906000Y-132750000D01*
X119919000Y-137830000D02*
X120619000Y-137830000D01*
X120619000Y-139030000D02*
X119919000Y-139030000D01*
X127600000Y-136302000D02*
X127600000Y-137002000D01*
X126400000Y-137002000D02*
X126400000Y-136302000D01*
X126400000Y-142336000D02*
X126400000Y-141636000D01*
X127600000Y-141636000D02*
X127600000Y-142336000D01*
X140411500Y-134029500D02*
X140411500Y-124429500D01*
X145211500Y-134029500D02*
X145211500Y-124429500D01*
X140411500Y-134029500D02*
X145211500Y-134029500D01*
X130206000Y-134274000D02*
X130906000Y-134274000D01*
X130906000Y-135474000D02*
X130206000Y-135474000D01*
X159159500Y-134778000D02*
X159159500Y-135478000D01*
X157959500Y-135478000D02*
X157959500Y-134778000D01*
X160620000Y-134778000D02*
X160620000Y-135478000D01*
X159420000Y-135478000D02*
X159420000Y-134778000D01*
X185274000Y-126860000D02*
X175674000Y-126860000D01*
X185274000Y-122060000D02*
X175674000Y-122060000D01*
X185274000Y-126860000D02*
X185274000Y-122060000D01*
X185274000Y-121272000D02*
X175674000Y-121272000D01*
X185274000Y-116472000D02*
X175674000Y-116472000D01*
X185274000Y-121272000D02*
X185274000Y-116472000D01*
X186913000Y-112487000D02*
X186213000Y-112487000D01*
X186213000Y-111287000D02*
X186913000Y-111287000D01*
X149371000Y-112916000D02*
X158971000Y-112916000D01*
X149371000Y-117716000D02*
X158971000Y-117716000D01*
X149371000Y-112916000D02*
X149371000Y-117716000D01*
X189830000Y-114839000D02*
X189830000Y-115539000D01*
X188630000Y-115539000D02*
X188630000Y-114839000D01*
X178150000Y-116043000D02*
X177450000Y-116043000D01*
X177450000Y-114843000D02*
X178150000Y-114843000D01*
X168275000Y-125472371D02*
X168275000Y-125646000D01*
X167295000Y-125603000D02*
X166406000Y-125603000D01*
X166850500Y-125603000D02*
X167295000Y-126195667D01*
X167295000Y-126195667D02*
X166406000Y-126195667D01*
X166406000Y-126195667D02*
X166850500Y-125603000D01*
X169541371Y-124206000D02*
G75*
G03X169541371Y-124206000I-1266371J0D01*
G01*
X107928000Y-135594000D02*
X107928000Y-136694000D01*
X107928000Y-136694000D02*
X110528000Y-136694000D01*
X107928000Y-135594000D02*
X110528000Y-135594000D01*
X164129000Y-112777000D02*
X164129000Y-116077000D01*
X164129000Y-116077000D02*
X171029000Y-116077000D01*
X164129000Y-112777000D02*
X171029000Y-112777000D01*
X172929000Y-119887000D02*
X172929000Y-116587000D01*
X172929000Y-116587000D02*
X166029000Y-116587000D01*
X172929000Y-119887000D02*
X166029000Y-119887000D01*
X178734000Y-140198000D02*
X187534000Y-140198000D01*
X187534000Y-136398000D02*
X187534000Y-144098000D01*
X187534000Y-144098000D02*
X178734000Y-144098000D01*
X178734000Y-144098000D02*
X178734000Y-143898000D01*
X185684000Y-130498000D02*
X187534000Y-130498000D01*
X187534000Y-130498000D02*
X187534000Y-131348000D01*
X178734000Y-143998000D02*
X178734000Y-130498000D01*
X178734000Y-130498000D02*
X180584000Y-130498000D01*
X107069000Y-140417000D02*
X108069000Y-140417000D01*
X108069000Y-141777000D02*
X107069000Y-141777000D01*
X164764000Y-126627000D02*
X164764000Y-127627000D01*
X163404000Y-127627000D02*
X163404000Y-126627000D01*
X163404000Y-131945000D02*
X163404000Y-130945000D01*
X164764000Y-130945000D02*
X164764000Y-131945000D01*
X139628500Y-137586000D02*
X138628500Y-137586000D01*
X138628500Y-136226000D02*
X139628500Y-136226000D01*
X135501000Y-143047000D02*
X134501000Y-143047000D01*
X134501000Y-141687000D02*
X135501000Y-141687000D01*
X139628500Y-140634000D02*
X138628500Y-140634000D01*
X138628500Y-139274000D02*
X139628500Y-139274000D01*
X139628500Y-136062000D02*
X138628500Y-136062000D01*
X138628500Y-134702000D02*
X139628500Y-134702000D01*
X139628500Y-139110000D02*
X138628500Y-139110000D01*
X138628500Y-137750000D02*
X139628500Y-137750000D01*
X145534000Y-137586000D02*
X144534000Y-137586000D01*
X144534000Y-136226000D02*
X145534000Y-136226000D01*
X145534000Y-140634000D02*
X144534000Y-140634000D01*
X144534000Y-139274000D02*
X145534000Y-139274000D01*
X145534000Y-136062000D02*
X144534000Y-136062000D01*
X144534000Y-134702000D02*
X145534000Y-134702000D01*
X144534000Y-137750000D02*
X145534000Y-137750000D01*
X145534000Y-139110000D02*
X144534000Y-139110000D01*
X167267000Y-133940000D02*
X168267000Y-133940000D01*
X168267000Y-135300000D02*
X167267000Y-135300000D01*
X187026000Y-115816000D02*
X187026000Y-114816000D01*
X188386000Y-114816000D02*
X188386000Y-115816000D01*
X136590000Y-129650000D02*
X134690000Y-129650000D01*
X135190000Y-131970000D02*
X136590000Y-131970000D01*
D13*
X157191000Y-127424000D02*
X157241000Y-127424000D01*
X157191000Y-123274000D02*
X157336000Y-123274000D01*
X162341000Y-123274000D02*
X162196000Y-123274000D01*
X162341000Y-127424000D02*
X162196000Y-127424000D01*
X157191000Y-127424000D02*
X157191000Y-123274000D01*
X162341000Y-127424000D02*
X162341000Y-123274000D01*
X157241000Y-127424000D02*
X157241000Y-128824000D01*
X130479700Y-141359000D02*
X134188300Y-141359000D01*
X128809000Y-135959000D02*
X134192600Y-135959000D01*
X151849000Y-134966000D02*
X151849000Y-135016000D01*
X155999000Y-134966000D02*
X155999000Y-135111000D01*
X155999000Y-140116000D02*
X155999000Y-139971000D01*
X151849000Y-140116000D02*
X151849000Y-139971000D01*
X151849000Y-134966000D02*
X155999000Y-134966000D01*
X151849000Y-140116000D02*
X155999000Y-140116000D01*
X151849000Y-135016000D02*
X150449000Y-135016000D01*
D12*
X186364000Y-121390000D02*
X186364000Y-124990000D01*
X186375522Y-121351522D02*
G75*
G02X190814000Y-123190000I1838478J-1838478D01*
G01*
X186375522Y-125028478D02*
G75*
G03X190814000Y-123190000I1838478J1838478D01*
G01*
X181472000Y-115910000D02*
X183272000Y-115910000D01*
X183272000Y-112690000D02*
X180822000Y-112690000D01*
X117178000Y-137722000D02*
X117238000Y-137722000D01*
X117238000Y-137722000D02*
X117238000Y-143202000D01*
X117238000Y-143202000D02*
X117178000Y-143202000D01*
X112098000Y-137722000D02*
X114978000Y-137722000D01*
X109898000Y-143662000D02*
X109898000Y-143202000D01*
X109898000Y-143202000D02*
X109838000Y-143202000D01*
X109838000Y-143202000D02*
X109838000Y-137722000D01*
X109838000Y-137722000D02*
X109898000Y-137722000D01*
X114978000Y-143202000D02*
X112098000Y-143202000D01*
X112098000Y-143202000D02*
X112098000Y-143662000D01*
D13*
X104735334Y-138787143D02*
X104687715Y-138834762D01*
X104544858Y-138882381D01*
X104449620Y-138882381D01*
X104306762Y-138834762D01*
X104211524Y-138739524D01*
X104163905Y-138644286D01*
X104116286Y-138453810D01*
X104116286Y-138310952D01*
X104163905Y-138120476D01*
X104211524Y-138025238D01*
X104306762Y-137930000D01*
X104449620Y-137882381D01*
X104544858Y-137882381D01*
X104687715Y-137930000D01*
X104735334Y-137977619D01*
X105687715Y-138882381D02*
X105116286Y-138882381D01*
X105402000Y-138882381D02*
X105402000Y-137882381D01*
X105306762Y-138025238D01*
X105211524Y-138120476D01*
X105116286Y-138168095D01*
X104608334Y-143359143D02*
X104560715Y-143406762D01*
X104417858Y-143454381D01*
X104322620Y-143454381D01*
X104179762Y-143406762D01*
X104084524Y-143311524D01*
X104036905Y-143216286D01*
X103989286Y-143025810D01*
X103989286Y-142882952D01*
X104036905Y-142692476D01*
X104084524Y-142597238D01*
X104179762Y-142502000D01*
X104322620Y-142454381D01*
X104417858Y-142454381D01*
X104560715Y-142502000D01*
X104608334Y-142549619D01*
X104989286Y-142549619D02*
X105036905Y-142502000D01*
X105132143Y-142454381D01*
X105370239Y-142454381D01*
X105465477Y-142502000D01*
X105513096Y-142549619D01*
X105560715Y-142644857D01*
X105560715Y-142740095D01*
X105513096Y-142882952D01*
X104941667Y-143454381D01*
X105560715Y-143454381D01*
X130643334Y-129282143D02*
X130595715Y-129329762D01*
X130452858Y-129377381D01*
X130357620Y-129377381D01*
X130214762Y-129329762D01*
X130119524Y-129234524D01*
X130071905Y-129139286D01*
X130024286Y-128948810D01*
X130024286Y-128805952D01*
X130071905Y-128615476D01*
X130119524Y-128520238D01*
X130214762Y-128425000D01*
X130357620Y-128377381D01*
X130452858Y-128377381D01*
X130595715Y-128425000D01*
X130643334Y-128472619D01*
X130976667Y-128377381D02*
X131595715Y-128377381D01*
X131262381Y-128758333D01*
X131405239Y-128758333D01*
X131500477Y-128805952D01*
X131548096Y-128853571D01*
X131595715Y-128948810D01*
X131595715Y-129186905D01*
X131548096Y-129282143D01*
X131500477Y-129329762D01*
X131405239Y-129377381D01*
X131119524Y-129377381D01*
X131024286Y-129329762D01*
X130976667Y-129282143D01*
X165838143Y-123483666D02*
X165885762Y-123531285D01*
X165933381Y-123674142D01*
X165933381Y-123769380D01*
X165885762Y-123912238D01*
X165790524Y-124007476D01*
X165695286Y-124055095D01*
X165504810Y-124102714D01*
X165361952Y-124102714D01*
X165171476Y-124055095D01*
X165076238Y-124007476D01*
X164981000Y-123912238D01*
X164933381Y-123769380D01*
X164933381Y-123674142D01*
X164981000Y-123531285D01*
X165028619Y-123483666D01*
X165266714Y-122626523D02*
X165933381Y-122626523D01*
X164885762Y-122864619D02*
X165600048Y-123102714D01*
X165600048Y-122483666D01*
X157186334Y-121261143D02*
X157138715Y-121308762D01*
X156995858Y-121356381D01*
X156900620Y-121356381D01*
X156757762Y-121308762D01*
X156662524Y-121213524D01*
X156614905Y-121118286D01*
X156567286Y-120927810D01*
X156567286Y-120784952D01*
X156614905Y-120594476D01*
X156662524Y-120499238D01*
X156757762Y-120404000D01*
X156900620Y-120356381D01*
X156995858Y-120356381D01*
X157138715Y-120404000D01*
X157186334Y-120451619D01*
X158091096Y-120356381D02*
X157614905Y-120356381D01*
X157567286Y-120832571D01*
X157614905Y-120784952D01*
X157710143Y-120737333D01*
X157948239Y-120737333D01*
X158043477Y-120784952D01*
X158091096Y-120832571D01*
X158138715Y-120927810D01*
X158138715Y-121165905D01*
X158091096Y-121261143D01*
X158043477Y-121308762D01*
X157948239Y-121356381D01*
X157710143Y-121356381D01*
X157614905Y-121308762D01*
X157567286Y-121261143D01*
X157694334Y-130151143D02*
X157646715Y-130198762D01*
X157503858Y-130246381D01*
X157408620Y-130246381D01*
X157265762Y-130198762D01*
X157170524Y-130103524D01*
X157122905Y-130008286D01*
X157075286Y-129817810D01*
X157075286Y-129674952D01*
X157122905Y-129484476D01*
X157170524Y-129389238D01*
X157265762Y-129294000D01*
X157408620Y-129246381D01*
X157503858Y-129246381D01*
X157646715Y-129294000D01*
X157694334Y-129341619D01*
X158551477Y-129246381D02*
X158361000Y-129246381D01*
X158265762Y-129294000D01*
X158218143Y-129341619D01*
X158122905Y-129484476D01*
X158075286Y-129674952D01*
X158075286Y-130055905D01*
X158122905Y-130151143D01*
X158170524Y-130198762D01*
X158265762Y-130246381D01*
X158456239Y-130246381D01*
X158551477Y-130198762D01*
X158599096Y-130151143D01*
X158646715Y-130055905D01*
X158646715Y-129817810D01*
X158599096Y-129722571D01*
X158551477Y-129674952D01*
X158456239Y-129627333D01*
X158265762Y-129627333D01*
X158170524Y-129674952D01*
X158122905Y-129722571D01*
X158075286Y-129817810D01*
X139549143Y-124499666D02*
X139596762Y-124547285D01*
X139644381Y-124690142D01*
X139644381Y-124785380D01*
X139596762Y-124928238D01*
X139501524Y-125023476D01*
X139406286Y-125071095D01*
X139215810Y-125118714D01*
X139072952Y-125118714D01*
X138882476Y-125071095D01*
X138787238Y-125023476D01*
X138692000Y-124928238D01*
X138644381Y-124785380D01*
X138644381Y-124690142D01*
X138692000Y-124547285D01*
X138739619Y-124499666D01*
X138644381Y-124166333D02*
X138644381Y-123499666D01*
X139644381Y-123928238D01*
X138025143Y-124499666D02*
X138072762Y-124547285D01*
X138120381Y-124690142D01*
X138120381Y-124785380D01*
X138072762Y-124928238D01*
X137977524Y-125023476D01*
X137882286Y-125071095D01*
X137691810Y-125118714D01*
X137548952Y-125118714D01*
X137358476Y-125071095D01*
X137263238Y-125023476D01*
X137168000Y-124928238D01*
X137120381Y-124785380D01*
X137120381Y-124690142D01*
X137168000Y-124547285D01*
X137215619Y-124499666D01*
X137548952Y-123928238D02*
X137501333Y-124023476D01*
X137453714Y-124071095D01*
X137358476Y-124118714D01*
X137310857Y-124118714D01*
X137215619Y-124071095D01*
X137168000Y-124023476D01*
X137120381Y-123928238D01*
X137120381Y-123737761D01*
X137168000Y-123642523D01*
X137215619Y-123594904D01*
X137310857Y-123547285D01*
X137358476Y-123547285D01*
X137453714Y-123594904D01*
X137501333Y-123642523D01*
X137548952Y-123737761D01*
X137548952Y-123928238D01*
X137596571Y-124023476D01*
X137644190Y-124071095D01*
X137739429Y-124118714D01*
X137929905Y-124118714D01*
X138025143Y-124071095D01*
X138072762Y-124023476D01*
X138120381Y-123928238D01*
X138120381Y-123737761D01*
X138072762Y-123642523D01*
X138025143Y-123594904D01*
X137929905Y-123547285D01*
X137739429Y-123547285D01*
X137644190Y-123594904D01*
X137596571Y-123642523D01*
X137548952Y-123737761D01*
X133183334Y-133707143D02*
X133135715Y-133754762D01*
X132992858Y-133802381D01*
X132897620Y-133802381D01*
X132754762Y-133754762D01*
X132659524Y-133659524D01*
X132611905Y-133564286D01*
X132564286Y-133373810D01*
X132564286Y-133230952D01*
X132611905Y-133040476D01*
X132659524Y-132945238D01*
X132754762Y-132850000D01*
X132897620Y-132802381D01*
X132992858Y-132802381D01*
X133135715Y-132850000D01*
X133183334Y-132897619D01*
X133659524Y-133802381D02*
X133850000Y-133802381D01*
X133945239Y-133754762D01*
X133992858Y-133707143D01*
X134088096Y-133564286D01*
X134135715Y-133373810D01*
X134135715Y-132992857D01*
X134088096Y-132897619D01*
X134040477Y-132850000D01*
X133945239Y-132802381D01*
X133754762Y-132802381D01*
X133659524Y-132850000D01*
X133611905Y-132897619D01*
X133564286Y-132992857D01*
X133564286Y-133230952D01*
X133611905Y-133326190D01*
X133659524Y-133373810D01*
X133754762Y-133421429D01*
X133945239Y-133421429D01*
X134040477Y-133373810D01*
X134088096Y-133326190D01*
X134135715Y-133230952D01*
X119626143Y-140184143D02*
X119578524Y-140231762D01*
X119435667Y-140279381D01*
X119340429Y-140279381D01*
X119197571Y-140231762D01*
X119102333Y-140136524D01*
X119054714Y-140041286D01*
X119007095Y-139850810D01*
X119007095Y-139707952D01*
X119054714Y-139517476D01*
X119102333Y-139422238D01*
X119197571Y-139327000D01*
X119340429Y-139279381D01*
X119435667Y-139279381D01*
X119578524Y-139327000D01*
X119626143Y-139374619D01*
X120578524Y-140279381D02*
X120007095Y-140279381D01*
X120292809Y-140279381D02*
X120292809Y-139279381D01*
X120197571Y-139422238D01*
X120102333Y-139517476D01*
X120007095Y-139565095D01*
X121197571Y-139279381D02*
X121292810Y-139279381D01*
X121388048Y-139327000D01*
X121435667Y-139374619D01*
X121483286Y-139469857D01*
X121530905Y-139660333D01*
X121530905Y-139898429D01*
X121483286Y-140088905D01*
X121435667Y-140184143D01*
X121388048Y-140231762D01*
X121292810Y-140279381D01*
X121197571Y-140279381D01*
X121102333Y-140231762D01*
X121054714Y-140184143D01*
X121007095Y-140088905D01*
X120959476Y-139898429D01*
X120959476Y-139660333D01*
X121007095Y-139469857D01*
X121054714Y-139374619D01*
X121102333Y-139327000D01*
X121197571Y-139279381D01*
X124198143Y-137009143D02*
X124150524Y-137056762D01*
X124007667Y-137104381D01*
X123912429Y-137104381D01*
X123769571Y-137056762D01*
X123674333Y-136961524D01*
X123626714Y-136866286D01*
X123579095Y-136675810D01*
X123579095Y-136532952D01*
X123626714Y-136342476D01*
X123674333Y-136247238D01*
X123769571Y-136152000D01*
X123912429Y-136104381D01*
X124007667Y-136104381D01*
X124150524Y-136152000D01*
X124198143Y-136199619D01*
X125150524Y-137104381D02*
X124579095Y-137104381D01*
X124864809Y-137104381D02*
X124864809Y-136104381D01*
X124769571Y-136247238D01*
X124674333Y-136342476D01*
X124579095Y-136390095D01*
X126102905Y-137104381D02*
X125531476Y-137104381D01*
X125817190Y-137104381D02*
X125817190Y-136104381D01*
X125721952Y-136247238D01*
X125626714Y-136342476D01*
X125531476Y-136390095D01*
X124198143Y-142216143D02*
X124150524Y-142263762D01*
X124007667Y-142311381D01*
X123912429Y-142311381D01*
X123769571Y-142263762D01*
X123674333Y-142168524D01*
X123626714Y-142073286D01*
X123579095Y-141882810D01*
X123579095Y-141739952D01*
X123626714Y-141549476D01*
X123674333Y-141454238D01*
X123769571Y-141359000D01*
X123912429Y-141311381D01*
X124007667Y-141311381D01*
X124150524Y-141359000D01*
X124198143Y-141406619D01*
X125150524Y-142311381D02*
X124579095Y-142311381D01*
X124864809Y-142311381D02*
X124864809Y-141311381D01*
X124769571Y-141454238D01*
X124674333Y-141549476D01*
X124579095Y-141597095D01*
X125531476Y-141406619D02*
X125579095Y-141359000D01*
X125674333Y-141311381D01*
X125912429Y-141311381D01*
X126007667Y-141359000D01*
X126055286Y-141406619D01*
X126102905Y-141501857D01*
X126102905Y-141597095D01*
X126055286Y-141739952D01*
X125483857Y-142311381D01*
X126102905Y-142311381D01*
X139268643Y-128722357D02*
X139316262Y-128769976D01*
X139363881Y-128912833D01*
X139363881Y-129008071D01*
X139316262Y-129150929D01*
X139221024Y-129246167D01*
X139125786Y-129293786D01*
X138935310Y-129341405D01*
X138792452Y-129341405D01*
X138601976Y-129293786D01*
X138506738Y-129246167D01*
X138411500Y-129150929D01*
X138363881Y-129008071D01*
X138363881Y-128912833D01*
X138411500Y-128769976D01*
X138459119Y-128722357D01*
X139363881Y-127769976D02*
X139363881Y-128341405D01*
X139363881Y-128055691D02*
X138363881Y-128055691D01*
X138506738Y-128150929D01*
X138601976Y-128246167D01*
X138649595Y-128341405D01*
X138363881Y-127436643D02*
X138363881Y-126817595D01*
X138744833Y-127150929D01*
X138744833Y-127008071D01*
X138792452Y-126912833D01*
X138840071Y-126865214D01*
X138935310Y-126817595D01*
X139173405Y-126817595D01*
X139268643Y-126865214D01*
X139316262Y-126912833D01*
X139363881Y-127008071D01*
X139363881Y-127293786D01*
X139316262Y-127389024D01*
X139268643Y-127436643D01*
X133215143Y-135231143D02*
X133167524Y-135278762D01*
X133024667Y-135326381D01*
X132929429Y-135326381D01*
X132786571Y-135278762D01*
X132691333Y-135183524D01*
X132643714Y-135088286D01*
X132596095Y-134897810D01*
X132596095Y-134754952D01*
X132643714Y-134564476D01*
X132691333Y-134469238D01*
X132786571Y-134374000D01*
X132929429Y-134326381D01*
X133024667Y-134326381D01*
X133167524Y-134374000D01*
X133215143Y-134421619D01*
X134167524Y-135326381D02*
X133596095Y-135326381D01*
X133881809Y-135326381D02*
X133881809Y-134326381D01*
X133786571Y-134469238D01*
X133691333Y-134564476D01*
X133596095Y-134612095D01*
X135024667Y-134659714D02*
X135024667Y-135326381D01*
X134786571Y-134278762D02*
X134548476Y-134993048D01*
X135167524Y-134993048D01*
X158916643Y-132532357D02*
X158964262Y-132579976D01*
X159011881Y-132722833D01*
X159011881Y-132818071D01*
X158964262Y-132960929D01*
X158869024Y-133056167D01*
X158773786Y-133103786D01*
X158583310Y-133151405D01*
X158440452Y-133151405D01*
X158249976Y-133103786D01*
X158154738Y-133056167D01*
X158059500Y-132960929D01*
X158011881Y-132818071D01*
X158011881Y-132722833D01*
X158059500Y-132579976D01*
X158107119Y-132532357D01*
X159011881Y-131579976D02*
X159011881Y-132151405D01*
X159011881Y-131865691D02*
X158011881Y-131865691D01*
X158154738Y-131960929D01*
X158249976Y-132056167D01*
X158297595Y-132151405D01*
X158011881Y-130675214D02*
X158011881Y-131151405D01*
X158488071Y-131199024D01*
X158440452Y-131151405D01*
X158392833Y-131056167D01*
X158392833Y-130818071D01*
X158440452Y-130722833D01*
X158488071Y-130675214D01*
X158583310Y-130627595D01*
X158821405Y-130627595D01*
X158916643Y-130675214D01*
X158964262Y-130722833D01*
X159011881Y-130818071D01*
X159011881Y-131056167D01*
X158964262Y-131151405D01*
X158916643Y-131199024D01*
X160377143Y-132468857D02*
X160424762Y-132516476D01*
X160472381Y-132659333D01*
X160472381Y-132754571D01*
X160424762Y-132897429D01*
X160329524Y-132992667D01*
X160234286Y-133040286D01*
X160043810Y-133087905D01*
X159900952Y-133087905D01*
X159710476Y-133040286D01*
X159615238Y-132992667D01*
X159520000Y-132897429D01*
X159472381Y-132754571D01*
X159472381Y-132659333D01*
X159520000Y-132516476D01*
X159567619Y-132468857D01*
X160472381Y-131516476D02*
X160472381Y-132087905D01*
X160472381Y-131802191D02*
X159472381Y-131802191D01*
X159615238Y-131897429D01*
X159710476Y-131992667D01*
X159758095Y-132087905D01*
X159472381Y-131183143D02*
X159472381Y-130516476D01*
X160472381Y-130945048D01*
X178681143Y-124817143D02*
X178633524Y-124864762D01*
X178490667Y-124912381D01*
X178395429Y-124912381D01*
X178252571Y-124864762D01*
X178157333Y-124769524D01*
X178109714Y-124674286D01*
X178062095Y-124483810D01*
X178062095Y-124340952D01*
X178109714Y-124150476D01*
X178157333Y-124055238D01*
X178252571Y-123960000D01*
X178395429Y-123912381D01*
X178490667Y-123912381D01*
X178633524Y-123960000D01*
X178681143Y-124007619D01*
X179633524Y-124912381D02*
X179062095Y-124912381D01*
X179347809Y-124912381D02*
X179347809Y-123912381D01*
X179252571Y-124055238D01*
X179157333Y-124150476D01*
X179062095Y-124198095D01*
X180109714Y-124912381D02*
X180300190Y-124912381D01*
X180395429Y-124864762D01*
X180443048Y-124817143D01*
X180538286Y-124674286D01*
X180585905Y-124483810D01*
X180585905Y-124102857D01*
X180538286Y-124007619D01*
X180490667Y-123960000D01*
X180395429Y-123912381D01*
X180204952Y-123912381D01*
X180109714Y-123960000D01*
X180062095Y-124007619D01*
X180014476Y-124102857D01*
X180014476Y-124340952D01*
X180062095Y-124436190D01*
X180109714Y-124483810D01*
X180204952Y-124531429D01*
X180395429Y-124531429D01*
X180490667Y-124483810D01*
X180538286Y-124436190D01*
X180585905Y-124340952D01*
X178681143Y-119229143D02*
X178633524Y-119276762D01*
X178490667Y-119324381D01*
X178395429Y-119324381D01*
X178252571Y-119276762D01*
X178157333Y-119181524D01*
X178109714Y-119086286D01*
X178062095Y-118895810D01*
X178062095Y-118752952D01*
X178109714Y-118562476D01*
X178157333Y-118467238D01*
X178252571Y-118372000D01*
X178395429Y-118324381D01*
X178490667Y-118324381D01*
X178633524Y-118372000D01*
X178681143Y-118419619D01*
X179062095Y-118419619D02*
X179109714Y-118372000D01*
X179204952Y-118324381D01*
X179443048Y-118324381D01*
X179538286Y-118372000D01*
X179585905Y-118419619D01*
X179633524Y-118514857D01*
X179633524Y-118610095D01*
X179585905Y-118752952D01*
X179014476Y-119324381D01*
X179633524Y-119324381D01*
X180252571Y-118324381D02*
X180347810Y-118324381D01*
X180443048Y-118372000D01*
X180490667Y-118419619D01*
X180538286Y-118514857D01*
X180585905Y-118705333D01*
X180585905Y-118943429D01*
X180538286Y-119133905D01*
X180490667Y-119229143D01*
X180443048Y-119276762D01*
X180347810Y-119324381D01*
X180252571Y-119324381D01*
X180157333Y-119276762D01*
X180109714Y-119229143D01*
X180062095Y-119133905D01*
X180014476Y-118943429D01*
X180014476Y-118705333D01*
X180062095Y-118514857D01*
X180109714Y-118419619D01*
X180157333Y-118372000D01*
X180252571Y-118324381D01*
X189222143Y-112244143D02*
X189174524Y-112291762D01*
X189031667Y-112339381D01*
X188936429Y-112339381D01*
X188793571Y-112291762D01*
X188698333Y-112196524D01*
X188650714Y-112101286D01*
X188603095Y-111910810D01*
X188603095Y-111767952D01*
X188650714Y-111577476D01*
X188698333Y-111482238D01*
X188793571Y-111387000D01*
X188936429Y-111339381D01*
X189031667Y-111339381D01*
X189174524Y-111387000D01*
X189222143Y-111434619D01*
X189603095Y-111434619D02*
X189650714Y-111387000D01*
X189745952Y-111339381D01*
X189984048Y-111339381D01*
X190079286Y-111387000D01*
X190126905Y-111434619D01*
X190174524Y-111529857D01*
X190174524Y-111625095D01*
X190126905Y-111767952D01*
X189555476Y-112339381D01*
X190174524Y-112339381D01*
X191126905Y-112339381D02*
X190555476Y-112339381D01*
X190841190Y-112339381D02*
X190841190Y-111339381D01*
X190745952Y-111482238D01*
X190650714Y-111577476D01*
X190555476Y-111625095D01*
X154678143Y-115673143D02*
X154630524Y-115720762D01*
X154487667Y-115768381D01*
X154392429Y-115768381D01*
X154249571Y-115720762D01*
X154154333Y-115625524D01*
X154106714Y-115530286D01*
X154059095Y-115339810D01*
X154059095Y-115196952D01*
X154106714Y-115006476D01*
X154154333Y-114911238D01*
X154249571Y-114816000D01*
X154392429Y-114768381D01*
X154487667Y-114768381D01*
X154630524Y-114816000D01*
X154678143Y-114863619D01*
X155059095Y-114863619D02*
X155106714Y-114816000D01*
X155201952Y-114768381D01*
X155440048Y-114768381D01*
X155535286Y-114816000D01*
X155582905Y-114863619D01*
X155630524Y-114958857D01*
X155630524Y-115054095D01*
X155582905Y-115196952D01*
X155011476Y-115768381D01*
X155630524Y-115768381D01*
X156011476Y-114863619D02*
X156059095Y-114816000D01*
X156154333Y-114768381D01*
X156392429Y-114768381D01*
X156487667Y-114816000D01*
X156535286Y-114863619D01*
X156582905Y-114958857D01*
X156582905Y-115054095D01*
X156535286Y-115196952D01*
X155963857Y-115768381D01*
X156582905Y-115768381D01*
X190837143Y-115831857D02*
X190884762Y-115879476D01*
X190932381Y-116022333D01*
X190932381Y-116117571D01*
X190884762Y-116260429D01*
X190789524Y-116355667D01*
X190694286Y-116403286D01*
X190503810Y-116450905D01*
X190360952Y-116450905D01*
X190170476Y-116403286D01*
X190075238Y-116355667D01*
X189980000Y-116260429D01*
X189932381Y-116117571D01*
X189932381Y-116022333D01*
X189980000Y-115879476D01*
X190027619Y-115831857D01*
X190027619Y-115450905D02*
X189980000Y-115403286D01*
X189932381Y-115308048D01*
X189932381Y-115069952D01*
X189980000Y-114974714D01*
X190027619Y-114927095D01*
X190122857Y-114879476D01*
X190218095Y-114879476D01*
X190360952Y-114927095D01*
X190932381Y-115498524D01*
X190932381Y-114879476D01*
X189932381Y-114546143D02*
X189932381Y-113927095D01*
X190313333Y-114260429D01*
X190313333Y-114117571D01*
X190360952Y-114022333D01*
X190408571Y-113974714D01*
X190503810Y-113927095D01*
X190741905Y-113927095D01*
X190837143Y-113974714D01*
X190884762Y-114022333D01*
X190932381Y-114117571D01*
X190932381Y-114403286D01*
X190884762Y-114498524D01*
X190837143Y-114546143D01*
X173855143Y-115800143D02*
X173807524Y-115847762D01*
X173664667Y-115895381D01*
X173569429Y-115895381D01*
X173426571Y-115847762D01*
X173331333Y-115752524D01*
X173283714Y-115657286D01*
X173236095Y-115466810D01*
X173236095Y-115323952D01*
X173283714Y-115133476D01*
X173331333Y-115038238D01*
X173426571Y-114943000D01*
X173569429Y-114895381D01*
X173664667Y-114895381D01*
X173807524Y-114943000D01*
X173855143Y-114990619D01*
X174236095Y-114990619D02*
X174283714Y-114943000D01*
X174378952Y-114895381D01*
X174617048Y-114895381D01*
X174712286Y-114943000D01*
X174759905Y-114990619D01*
X174807524Y-115085857D01*
X174807524Y-115181095D01*
X174759905Y-115323952D01*
X174188476Y-115895381D01*
X174807524Y-115895381D01*
X175664667Y-115228714D02*
X175664667Y-115895381D01*
X175426571Y-114847762D02*
X175188476Y-115562048D01*
X175807524Y-115562048D01*
X170993752Y-126214095D02*
X169993752Y-126214095D01*
X169993752Y-125976000D01*
X170041371Y-125833142D01*
X170136609Y-125737904D01*
X170231847Y-125690285D01*
X170422323Y-125642666D01*
X170565181Y-125642666D01*
X170755657Y-125690285D01*
X170850895Y-125737904D01*
X170946133Y-125833142D01*
X170993752Y-125976000D01*
X170993752Y-126214095D01*
X170993752Y-124690285D02*
X170993752Y-125261714D01*
X170993752Y-124976000D02*
X169993752Y-124976000D01*
X170136609Y-125071238D01*
X170231847Y-125166476D01*
X170279466Y-125261714D01*
X106068905Y-136596381D02*
X106068905Y-135596381D01*
X106307000Y-135596381D01*
X106449858Y-135644000D01*
X106545096Y-135739238D01*
X106592715Y-135834476D01*
X106640334Y-136024952D01*
X106640334Y-136167810D01*
X106592715Y-136358286D01*
X106545096Y-136453524D01*
X106449858Y-136548762D01*
X106307000Y-136596381D01*
X106068905Y-136596381D01*
X107021286Y-135691619D02*
X107068905Y-135644000D01*
X107164143Y-135596381D01*
X107402239Y-135596381D01*
X107497477Y-135644000D01*
X107545096Y-135691619D01*
X107592715Y-135786857D01*
X107592715Y-135882095D01*
X107545096Y-136024952D01*
X106973667Y-136596381D01*
X107592715Y-136596381D01*
X173378905Y-114879381D02*
X173378905Y-113879381D01*
X173617000Y-113879381D01*
X173759858Y-113927000D01*
X173855096Y-114022238D01*
X173902715Y-114117476D01*
X173950334Y-114307952D01*
X173950334Y-114450810D01*
X173902715Y-114641286D01*
X173855096Y-114736524D01*
X173759858Y-114831762D01*
X173617000Y-114879381D01*
X173378905Y-114879381D01*
X174283667Y-113879381D02*
X174902715Y-113879381D01*
X174569381Y-114260333D01*
X174712239Y-114260333D01*
X174807477Y-114307952D01*
X174855096Y-114355571D01*
X174902715Y-114450810D01*
X174902715Y-114688905D01*
X174855096Y-114784143D01*
X174807477Y-114831762D01*
X174712239Y-114879381D01*
X174426524Y-114879381D01*
X174331286Y-114831762D01*
X174283667Y-114784143D01*
X162202905Y-118689381D02*
X162202905Y-117689381D01*
X162441000Y-117689381D01*
X162583858Y-117737000D01*
X162679096Y-117832238D01*
X162726715Y-117927476D01*
X162774334Y-118117952D01*
X162774334Y-118260810D01*
X162726715Y-118451286D01*
X162679096Y-118546524D01*
X162583858Y-118641762D01*
X162441000Y-118689381D01*
X162202905Y-118689381D01*
X163631477Y-118022714D02*
X163631477Y-118689381D01*
X163393381Y-117641762D02*
X163155286Y-118356048D01*
X163774334Y-118356048D01*
X92249667Y-135723381D02*
X92249667Y-136437667D01*
X92202047Y-136580524D01*
X92106809Y-136675762D01*
X91963952Y-136723381D01*
X91868714Y-136723381D01*
X93249667Y-136723381D02*
X92678238Y-136723381D01*
X92963952Y-136723381D02*
X92963952Y-135723381D01*
X92868714Y-135866238D01*
X92773476Y-135961476D01*
X92678238Y-136009095D01*
X164004667Y-135850381D02*
X164004667Y-136564667D01*
X163957047Y-136707524D01*
X163861809Y-136802762D01*
X163718952Y-136850381D01*
X163623714Y-136850381D01*
X164433238Y-135945619D02*
X164480857Y-135898000D01*
X164576095Y-135850381D01*
X164814191Y-135850381D01*
X164909429Y-135898000D01*
X164957048Y-135945619D01*
X165004667Y-136040857D01*
X165004667Y-136136095D01*
X164957048Y-136278952D01*
X164385619Y-136850381D01*
X165004667Y-136850381D01*
X176996381Y-136221333D02*
X177710667Y-136221333D01*
X177853524Y-136268953D01*
X177948762Y-136364191D01*
X177996381Y-136507048D01*
X177996381Y-136602286D01*
X176996381Y-135840381D02*
X176996381Y-135221333D01*
X177377333Y-135554667D01*
X177377333Y-135411809D01*
X177424952Y-135316571D01*
X177472571Y-135268952D01*
X177567810Y-135221333D01*
X177805905Y-135221333D01*
X177901143Y-135268952D01*
X177948762Y-135316571D01*
X177996381Y-135411809D01*
X177996381Y-135697524D01*
X177948762Y-135792762D01*
X177901143Y-135840381D01*
X104608334Y-141549381D02*
X104275000Y-141073190D01*
X104036905Y-141549381D02*
X104036905Y-140549381D01*
X104417858Y-140549381D01*
X104513096Y-140597000D01*
X104560715Y-140644619D01*
X104608334Y-140739857D01*
X104608334Y-140882714D01*
X104560715Y-140977952D01*
X104513096Y-141025571D01*
X104417858Y-141073190D01*
X104036905Y-141073190D01*
X105560715Y-141549381D02*
X104989286Y-141549381D01*
X105275000Y-141549381D02*
X105275000Y-140549381D01*
X105179762Y-140692238D01*
X105084524Y-140787476D01*
X104989286Y-140835095D01*
X166060381Y-127293666D02*
X165584190Y-127627000D01*
X166060381Y-127865095D02*
X165060381Y-127865095D01*
X165060381Y-127484142D01*
X165108000Y-127388904D01*
X165155619Y-127341285D01*
X165250857Y-127293666D01*
X165393714Y-127293666D01*
X165488952Y-127341285D01*
X165536571Y-127388904D01*
X165584190Y-127484142D01*
X165584190Y-127865095D01*
X165155619Y-126912714D02*
X165108000Y-126865095D01*
X165060381Y-126769857D01*
X165060381Y-126531761D01*
X165108000Y-126436523D01*
X165155619Y-126388904D01*
X165250857Y-126341285D01*
X165346095Y-126341285D01*
X165488952Y-126388904D01*
X166060381Y-126960333D01*
X166060381Y-126341285D01*
X165986381Y-131611666D02*
X165510190Y-131945000D01*
X165986381Y-132183095D02*
X164986381Y-132183095D01*
X164986381Y-131802142D01*
X165034000Y-131706904D01*
X165081619Y-131659285D01*
X165176857Y-131611666D01*
X165319714Y-131611666D01*
X165414952Y-131659285D01*
X165462571Y-131706904D01*
X165510190Y-131802142D01*
X165510190Y-132183095D01*
X164986381Y-131278333D02*
X164986381Y-130659285D01*
X165367333Y-130992619D01*
X165367333Y-130849761D01*
X165414952Y-130754523D01*
X165462571Y-130706904D01*
X165557810Y-130659285D01*
X165795905Y-130659285D01*
X165891143Y-130706904D01*
X165938762Y-130754523D01*
X165986381Y-130849761D01*
X165986381Y-131135476D01*
X165938762Y-131230714D01*
X165891143Y-131278333D01*
X141882834Y-137358381D02*
X141549500Y-136882190D01*
X141311405Y-137358381D02*
X141311405Y-136358381D01*
X141692358Y-136358381D01*
X141787596Y-136406000D01*
X141835215Y-136453619D01*
X141882834Y-136548857D01*
X141882834Y-136691714D01*
X141835215Y-136786952D01*
X141787596Y-136834571D01*
X141692358Y-136882190D01*
X141311405Y-136882190D01*
X142739977Y-136691714D02*
X142739977Y-137358381D01*
X142501881Y-136310762D02*
X142263786Y-137025048D01*
X142882834Y-137025048D01*
X131786334Y-142819381D02*
X131453000Y-142343190D01*
X131214905Y-142819381D02*
X131214905Y-141819381D01*
X131595858Y-141819381D01*
X131691096Y-141867000D01*
X131738715Y-141914619D01*
X131786334Y-142009857D01*
X131786334Y-142152714D01*
X131738715Y-142247952D01*
X131691096Y-142295571D01*
X131595858Y-142343190D01*
X131214905Y-142343190D01*
X132691096Y-141819381D02*
X132214905Y-141819381D01*
X132167286Y-142295571D01*
X132214905Y-142247952D01*
X132310143Y-142200333D01*
X132548239Y-142200333D01*
X132643477Y-142247952D01*
X132691096Y-142295571D01*
X132738715Y-142390810D01*
X132738715Y-142628905D01*
X132691096Y-142724143D01*
X132643477Y-142771762D01*
X132548239Y-142819381D01*
X132310143Y-142819381D01*
X132214905Y-142771762D01*
X132167286Y-142724143D01*
X141882834Y-140406381D02*
X141549500Y-139930190D01*
X141311405Y-140406381D02*
X141311405Y-139406381D01*
X141692358Y-139406381D01*
X141787596Y-139454000D01*
X141835215Y-139501619D01*
X141882834Y-139596857D01*
X141882834Y-139739714D01*
X141835215Y-139834952D01*
X141787596Y-139882571D01*
X141692358Y-139930190D01*
X141311405Y-139930190D01*
X142739977Y-139406381D02*
X142549500Y-139406381D01*
X142454262Y-139454000D01*
X142406643Y-139501619D01*
X142311405Y-139644476D01*
X142263786Y-139834952D01*
X142263786Y-140215905D01*
X142311405Y-140311143D01*
X142359024Y-140358762D01*
X142454262Y-140406381D01*
X142644739Y-140406381D01*
X142739977Y-140358762D01*
X142787596Y-140311143D01*
X142835215Y-140215905D01*
X142835215Y-139977810D01*
X142787596Y-139882571D01*
X142739977Y-139834952D01*
X142644739Y-139787333D01*
X142454262Y-139787333D01*
X142359024Y-139834952D01*
X142311405Y-139882571D01*
X142263786Y-139977810D01*
X141882834Y-135834381D02*
X141549500Y-135358190D01*
X141311405Y-135834381D02*
X141311405Y-134834381D01*
X141692358Y-134834381D01*
X141787596Y-134882000D01*
X141835215Y-134929619D01*
X141882834Y-135024857D01*
X141882834Y-135167714D01*
X141835215Y-135262952D01*
X141787596Y-135310571D01*
X141692358Y-135358190D01*
X141311405Y-135358190D01*
X142216167Y-134834381D02*
X142882834Y-134834381D01*
X142454262Y-135834381D01*
X141882834Y-138882381D02*
X141549500Y-138406190D01*
X141311405Y-138882381D02*
X141311405Y-137882381D01*
X141692358Y-137882381D01*
X141787596Y-137930000D01*
X141835215Y-137977619D01*
X141882834Y-138072857D01*
X141882834Y-138215714D01*
X141835215Y-138310952D01*
X141787596Y-138358571D01*
X141692358Y-138406190D01*
X141311405Y-138406190D01*
X142454262Y-138310952D02*
X142359024Y-138263333D01*
X142311405Y-138215714D01*
X142263786Y-138120476D01*
X142263786Y-138072857D01*
X142311405Y-137977619D01*
X142359024Y-137930000D01*
X142454262Y-137882381D01*
X142644739Y-137882381D01*
X142739977Y-137930000D01*
X142787596Y-137977619D01*
X142835215Y-138072857D01*
X142835215Y-138120476D01*
X142787596Y-138215714D01*
X142739977Y-138263333D01*
X142644739Y-138310952D01*
X142454262Y-138310952D01*
X142359024Y-138358571D01*
X142311405Y-138406190D01*
X142263786Y-138501429D01*
X142263786Y-138691905D01*
X142311405Y-138787143D01*
X142359024Y-138834762D01*
X142454262Y-138882381D01*
X142644739Y-138882381D01*
X142739977Y-138834762D01*
X142787596Y-138787143D01*
X142835215Y-138691905D01*
X142835215Y-138501429D01*
X142787596Y-138406190D01*
X142739977Y-138358571D01*
X142644739Y-138310952D01*
X147851834Y-137358381D02*
X147518500Y-136882190D01*
X147280405Y-137358381D02*
X147280405Y-136358381D01*
X147661358Y-136358381D01*
X147756596Y-136406000D01*
X147804215Y-136453619D01*
X147851834Y-136548857D01*
X147851834Y-136691714D01*
X147804215Y-136786952D01*
X147756596Y-136834571D01*
X147661358Y-136882190D01*
X147280405Y-136882190D01*
X148328024Y-137358381D02*
X148518500Y-137358381D01*
X148613739Y-137310762D01*
X148661358Y-137263143D01*
X148756596Y-137120286D01*
X148804215Y-136929810D01*
X148804215Y-136548857D01*
X148756596Y-136453619D01*
X148708977Y-136406000D01*
X148613739Y-136358381D01*
X148423262Y-136358381D01*
X148328024Y-136406000D01*
X148280405Y-136453619D01*
X148232786Y-136548857D01*
X148232786Y-136786952D01*
X148280405Y-136882190D01*
X148328024Y-136929810D01*
X148423262Y-136977429D01*
X148613739Y-136977429D01*
X148708977Y-136929810D01*
X148756596Y-136882190D01*
X148804215Y-136786952D01*
X147820143Y-140406381D02*
X147486809Y-139930190D01*
X147248714Y-140406381D02*
X147248714Y-139406381D01*
X147629667Y-139406381D01*
X147724905Y-139454000D01*
X147772524Y-139501619D01*
X147820143Y-139596857D01*
X147820143Y-139739714D01*
X147772524Y-139834952D01*
X147724905Y-139882571D01*
X147629667Y-139930190D01*
X147248714Y-139930190D01*
X148772524Y-140406381D02*
X148201095Y-140406381D01*
X148486809Y-140406381D02*
X148486809Y-139406381D01*
X148391571Y-139549238D01*
X148296333Y-139644476D01*
X148201095Y-139692095D01*
X149391571Y-139406381D02*
X149486810Y-139406381D01*
X149582048Y-139454000D01*
X149629667Y-139501619D01*
X149677286Y-139596857D01*
X149724905Y-139787333D01*
X149724905Y-140025429D01*
X149677286Y-140215905D01*
X149629667Y-140311143D01*
X149582048Y-140358762D01*
X149486810Y-140406381D01*
X149391571Y-140406381D01*
X149296333Y-140358762D01*
X149248714Y-140311143D01*
X149201095Y-140215905D01*
X149153476Y-140025429D01*
X149153476Y-139787333D01*
X149201095Y-139596857D01*
X149248714Y-139501619D01*
X149296333Y-139454000D01*
X149391571Y-139406381D01*
X147820143Y-135834381D02*
X147486809Y-135358190D01*
X147248714Y-135834381D02*
X147248714Y-134834381D01*
X147629667Y-134834381D01*
X147724905Y-134882000D01*
X147772524Y-134929619D01*
X147820143Y-135024857D01*
X147820143Y-135167714D01*
X147772524Y-135262952D01*
X147724905Y-135310571D01*
X147629667Y-135358190D01*
X147248714Y-135358190D01*
X148772524Y-135834381D02*
X148201095Y-135834381D01*
X148486809Y-135834381D02*
X148486809Y-134834381D01*
X148391571Y-134977238D01*
X148296333Y-135072476D01*
X148201095Y-135120095D01*
X149724905Y-135834381D02*
X149153476Y-135834381D01*
X149439190Y-135834381D02*
X149439190Y-134834381D01*
X149343952Y-134977238D01*
X149248714Y-135072476D01*
X149153476Y-135120095D01*
X147820143Y-138945881D02*
X147486809Y-138469690D01*
X147248714Y-138945881D02*
X147248714Y-137945881D01*
X147629667Y-137945881D01*
X147724905Y-137993500D01*
X147772524Y-138041119D01*
X147820143Y-138136357D01*
X147820143Y-138279214D01*
X147772524Y-138374452D01*
X147724905Y-138422071D01*
X147629667Y-138469690D01*
X147248714Y-138469690D01*
X148772524Y-138945881D02*
X148201095Y-138945881D01*
X148486809Y-138945881D02*
X148486809Y-137945881D01*
X148391571Y-138088738D01*
X148296333Y-138183976D01*
X148201095Y-138231595D01*
X149153476Y-138041119D02*
X149201095Y-137993500D01*
X149296333Y-137945881D01*
X149534429Y-137945881D01*
X149629667Y-137993500D01*
X149677286Y-138041119D01*
X149724905Y-138136357D01*
X149724905Y-138231595D01*
X149677286Y-138374452D01*
X149105857Y-138945881D01*
X149724905Y-138945881D01*
X170680143Y-135072381D02*
X170346809Y-134596190D01*
X170108714Y-135072381D02*
X170108714Y-134072381D01*
X170489667Y-134072381D01*
X170584905Y-134120000D01*
X170632524Y-134167619D01*
X170680143Y-134262857D01*
X170680143Y-134405714D01*
X170632524Y-134500952D01*
X170584905Y-134548571D01*
X170489667Y-134596190D01*
X170108714Y-134596190D01*
X171632524Y-135072381D02*
X171061095Y-135072381D01*
X171346809Y-135072381D02*
X171346809Y-134072381D01*
X171251571Y-134215238D01*
X171156333Y-134310476D01*
X171061095Y-134358095D01*
X171965857Y-134072381D02*
X172584905Y-134072381D01*
X172251571Y-134453333D01*
X172394429Y-134453333D01*
X172489667Y-134500952D01*
X172537286Y-134548571D01*
X172584905Y-134643810D01*
X172584905Y-134881905D01*
X172537286Y-134977143D01*
X172489667Y-135024762D01*
X172394429Y-135072381D01*
X172108714Y-135072381D01*
X172013476Y-135024762D01*
X171965857Y-134977143D01*
X186761381Y-115958857D02*
X186285190Y-116292191D01*
X186761381Y-116530286D02*
X185761381Y-116530286D01*
X185761381Y-116149333D01*
X185809000Y-116054095D01*
X185856619Y-116006476D01*
X185951857Y-115958857D01*
X186094714Y-115958857D01*
X186189952Y-116006476D01*
X186237571Y-116054095D01*
X186285190Y-116149333D01*
X186285190Y-116530286D01*
X186761381Y-115006476D02*
X186761381Y-115577905D01*
X186761381Y-115292191D02*
X185761381Y-115292191D01*
X185904238Y-115387429D01*
X185999476Y-115482667D01*
X186047095Y-115577905D01*
X186094714Y-114149333D02*
X186761381Y-114149333D01*
X185713762Y-114387429D02*
X186428048Y-114625524D01*
X186428048Y-114006476D01*
X109093095Y-124412381D02*
X109093095Y-125221905D01*
X109140714Y-125317143D01*
X109188333Y-125364762D01*
X109283571Y-125412381D01*
X109474048Y-125412381D01*
X109569286Y-125364762D01*
X109616905Y-125317143D01*
X109664524Y-125221905D01*
X109664524Y-124412381D01*
X110664524Y-125412381D02*
X110093095Y-125412381D01*
X110378809Y-125412381D02*
X110378809Y-124412381D01*
X110283571Y-124555238D01*
X110188333Y-124650476D01*
X110093095Y-124698095D01*
X135128095Y-128262381D02*
X135128095Y-129071905D01*
X135175714Y-129167143D01*
X135223333Y-129214762D01*
X135318571Y-129262381D01*
X135509048Y-129262381D01*
X135604286Y-129214762D01*
X135651905Y-129167143D01*
X135699524Y-129071905D01*
X135699524Y-128262381D01*
X136128095Y-128357619D02*
X136175714Y-128310000D01*
X136270952Y-128262381D01*
X136509048Y-128262381D01*
X136604286Y-128310000D01*
X136651905Y-128357619D01*
X136699524Y-128452857D01*
X136699524Y-128548095D01*
X136651905Y-128690952D01*
X136080476Y-129262381D01*
X136699524Y-129262381D01*
X155194095Y-127595381D02*
X155194095Y-128404905D01*
X155241714Y-128500143D01*
X155289333Y-128547762D01*
X155384571Y-128595381D01*
X155575048Y-128595381D01*
X155670286Y-128547762D01*
X155717905Y-128500143D01*
X155765524Y-128404905D01*
X155765524Y-127595381D01*
X156146476Y-127595381D02*
X156765524Y-127595381D01*
X156432190Y-127976333D01*
X156575048Y-127976333D01*
X156670286Y-128023952D01*
X156717905Y-128071571D01*
X156765524Y-128166810D01*
X156765524Y-128404905D01*
X156717905Y-128500143D01*
X156670286Y-128547762D01*
X156575048Y-128595381D01*
X156289333Y-128595381D01*
X156194095Y-128547762D01*
X156146476Y-128500143D01*
X128778095Y-141692381D02*
X128778095Y-142501905D01*
X128825714Y-142597143D01*
X128873333Y-142644762D01*
X128968571Y-142692381D01*
X129159048Y-142692381D01*
X129254286Y-142644762D01*
X129301905Y-142597143D01*
X129349524Y-142501905D01*
X129349524Y-141692381D01*
X130254286Y-142025714D02*
X130254286Y-142692381D01*
X130016190Y-141644762D02*
X129778095Y-142359048D01*
X130397143Y-142359048D01*
X153162095Y-133493381D02*
X153162095Y-134302905D01*
X153209714Y-134398143D01*
X153257333Y-134445762D01*
X153352571Y-134493381D01*
X153543048Y-134493381D01*
X153638286Y-134445762D01*
X153685905Y-134398143D01*
X153733524Y-134302905D01*
X153733524Y-133493381D01*
X154685905Y-133493381D02*
X154209714Y-133493381D01*
X154162095Y-133969571D01*
X154209714Y-133921952D01*
X154304952Y-133874333D01*
X154543048Y-133874333D01*
X154638286Y-133921952D01*
X154685905Y-133969571D01*
X154733524Y-134064810D01*
X154733524Y-134302905D01*
X154685905Y-134398143D01*
X154638286Y-134445762D01*
X154543048Y-134493381D01*
X154304952Y-134493381D01*
X154209714Y-134445762D01*
X154162095Y-134398143D01*
X186436095Y-119086381D02*
X186436095Y-119895905D01*
X186483714Y-119991143D01*
X186531333Y-120038762D01*
X186626571Y-120086381D01*
X186817048Y-120086381D01*
X186912286Y-120038762D01*
X186959905Y-119991143D01*
X187007524Y-119895905D01*
X187007524Y-119086381D01*
X187912286Y-119086381D02*
X187721809Y-119086381D01*
X187626571Y-119134000D01*
X187578952Y-119181619D01*
X187483714Y-119324476D01*
X187436095Y-119514952D01*
X187436095Y-119895905D01*
X187483714Y-119991143D01*
X187531333Y-120038762D01*
X187626571Y-120086381D01*
X187817048Y-120086381D01*
X187912286Y-120038762D01*
X187959905Y-119991143D01*
X188007524Y-119895905D01*
X188007524Y-119657810D01*
X187959905Y-119562571D01*
X187912286Y-119514952D01*
X187817048Y-119467333D01*
X187626571Y-119467333D01*
X187531333Y-119514952D01*
X187483714Y-119562571D01*
X187436095Y-119657810D01*
X181610095Y-110852381D02*
X181610095Y-111661905D01*
X181657714Y-111757143D01*
X181705333Y-111804762D01*
X181800571Y-111852381D01*
X181991048Y-111852381D01*
X182086286Y-111804762D01*
X182133905Y-111757143D01*
X182181524Y-111661905D01*
X182181524Y-110852381D01*
X182562476Y-110852381D02*
X183229143Y-110852381D01*
X182800571Y-111852381D01*
X112728476Y-135914381D02*
X113395143Y-136914381D01*
X113395143Y-135914381D02*
X112728476Y-136914381D01*
X114299905Y-136914381D02*
X113728476Y-136914381D01*
X114014190Y-136914381D02*
X114014190Y-135914381D01*
X113918952Y-136057238D01*
X113823714Y-136152476D01*
X113728476Y-136200095D01*
M02*
